<svg xmlns="http://www.w3.org/2000/svg" viewBox="0 0 223.27 26.2"><defs><style>.cls-1{fill:#ffffff;}</style></defs><title>Asset 1</title><g id="Layer_2" data-name="Layer 2"><g id="Updated_061511" data-name="Updated 061511"><path class="cls-1" d="M127,.08a6.2,6.2,0,0,0-5.31,3.07c-1,1.75-3.86,6.71-4.88,8.46a2.44,2.44,0,0,0,2.12,3.69h16.93l-3,5.26a2.45,2.45,0,0,1-2.16,1.28H128a1,1,0,0,1-.92-1.52c.32-.57,1-1.75,1-1.75H112.78l-2.23,3.86a2.48,2.48,0,0,0,2.1,3.75h28.69a6.23,6.23,0,0,0,5.4-3.15c1.09-1.9,3.66-6.38,4.77-8.28A2.45,2.45,0,0,0,149.46,11H132.53l3.13-5.42a2.47,2.47,0,0,1,2.09-1.14h2.64a1,1,0,0,1,1,1.43c-.27.49-1.06,1.84-1.06,1.84H155.6l2.3-4A2.47,2.47,0,0,0,155.74.08Z"/><path class="cls-1" d="M114.86.08H86.2a6.28,6.28,0,0,0-5.35,3L69.66,22.52a2.46,2.46,0,0,0,2.13,3.67H100.5a6.26,6.26,0,0,0,5.35-3.05L117,3.77A2.46,2.46,0,0,0,114.86.08ZM100.42,6c-.41.71-8,13.92-8.46,14.66a2.49,2.49,0,0,1-2.13,1.24H87.16a1,1,0,0,1-.92-1.51l8.5-14.72a2.48,2.48,0,0,1,2.12-1.2h2.67A1,1,0,0,1,100.42,6Z"/><path class="cls-1" d="M74,.08H41.66L29.09,21.86H0V26.2H59.64A6.2,6.2,0,0,0,65,23.09c1.14-2,2.94-5.1,3.71-6.45a2.47,2.47,0,0,0-1.48-3.5,6.31,6.31,0,0,0,5.27-3c1-1.79,2.69-4.68,3.63-6.31A2.46,2.46,0,0,0,74,.08ZM56.85,16.85c-.38.67-1.68,2.91-2.19,3.8a2.41,2.41,0,0,1-2.11,1.22H44.42l3.78-6.55H56A1,1,0,0,1,56.85,16.85ZM63.13,6c-.38.68-1.68,2.91-2.19,3.79A2.4,2.4,0,0,1,58.83,11H50.7l3.78-6.55h7.75A1,1,0,0,1,63.13,6Z"/><polygon class="cls-1" points="164.31 0.08 149.24 26.19 185.77 26.19 188.27 21.86 167.07 21.86 170.85 15.31 192.05 15.31 194.56 10.97 173.36 10.97 177.14 4.41 216.93 4.42 216.93 0.08 164.31 0.08"/><path class="cls-1" d="M221,0a2.23,2.23,0,0,1,2.27,2.27,2.27,2.27,0,0,1-4.55,0A2.22,2.22,0,0,1,221,0Zm0,4.17a1.85,1.85,0,0,0,1.89-1.89,1.9,1.9,0,1,0-3.8,0A1.86,1.86,0,0,0,221,4.17Zm.42-1.66.63,1h-.49l-.6-.95h-.4V3.5h-.43V1.06h1.07a.71.71,0,0,1,.74.71v.11A.64.64,0,0,1,221.42,2.5Zm-.86-.29h.58a.35.35,0,0,0,.39-.31V1.78a.38.38,0,0,0-.39-.36h-.58Z"/></g></g></svg>